<svg width="30" height="30" viewBox="0 0 30 30" fill="none" xmlns="http://www.w3.org/2000/svg">
    <path fill-rule="evenodd" clip-rule="evenodd" d="M30 19.2391C30 20.8573 28.6836 22.1738 27.0645 22.1738H6.52148V24.2986C7.35352 24.5939 8.01562 25.2544 8.31055 26.0869H24.2988C24.7031 24.9482 25.7891 24.1304 27.0645 24.1304C28.6836 24.1304 30 25.4469 30 27.0652C30 28.6833 28.6836 30 27.0645 30C25.7891 30 24.7031 29.182 24.2988 28.0435H8.31055C7.90625 29.1821 6.81836 30 5.54297 30C3.92578 30 2.60938 28.6835 2.60938 27.0652C2.60938 25.7899 3.42578 24.7025 4.56445 24.2987V2.93481C4.56445 2.39539 4.12695 1.95654 3.58789 1.95654H0.978516C0.4375 1.95654 0 1.51855 0 0.978271C0 0.437988 0.4375 0 0.978516 0H3.58789C5.20508 0 6.52148 1.31653 6.52148 2.93481V6.52173H29.0215C29.5625 6.52173 30 6.95972 30 7.5V19.2391ZM28.043 8.47791H6.52148V20.217H27.0645C27.6035 20.217 28.043 19.7782 28.043 19.2388V8.47791ZM27.0645 26.0869C27.6035 26.0869 28.043 26.5258 28.043 27.0652C28.043 27.6046 27.6035 28.0435 27.0645 28.0435C26.5254 28.0435 26.0859 27.6046 26.0859 27.0652C26.0859 26.7542 26.2324 26.4766 26.459 26.2974C26.625 26.1656 26.8359 26.0869 27.0645 26.0869ZM4.56836 27.0652C4.56836 27.6046 5.00781 28.0435 5.54688 28.0435C6.08594 28.0435 6.52539 27.6046 6.52539 27.0652C6.52539 26.5258 6.08594 26.0869 5.54688 26.0869C5.25781 26.0869 4.99609 26.2133 4.81641 26.4138C4.66211 26.5869 4.56836 26.8153 4.56836 27.0652Z" fill="#5C5C60"/>
</svg>
