<svg width="31" height="27" viewBox="0 0 31 27" xmlns="http://www.w3.org/2000/svg">
    <path fill-rule="evenodd" clip-rule="evenodd" d="M25.2331 2.09812C26.8177 2.34668 27.9945 3.67881 28.461 5.75225C29.0389 8.39031 28.3244 11.6835 26.5009 14.7877C24.2465 18.6058 20.4389 22.0869 15.4853 24.8607C10.5291 22.0487 6.72008 18.5673 4.46472 14.7865C2.6039 11.6553 1.88943 8.36331 2.50515 5.75423C2.97252 3.6792 4.14844 2.34668 5.72847 2.09891C6.25499 2.02268 6.73646 1.98535 7.2011 1.98535C10.727 1.98535 12.6875 4.17434 13.5431 5.48106C13.9517 6.09213 14.7126 6.47212 15.529 6.47212C16.3209 6.47212 17.12 6.07188 17.5214 5.47034C18.1735 4.4225 20.0871 1.98535 23.7659 1.98535C24.2306 1.98535 24.7116 2.02228 25.2331 2.09812ZM25.6571 0.163985L25.5051 0.144529C24.9103 0.0702794 24.3478 0 23.8118 0C18.9429 0 16.4126 3.132 15.5444 4.48756C14.383 2.80919 11.7963 0 7.15591 0C6.5006 0 5.8917 0.0543971 5.3042 0.164779C2.79535 0.538412 0.908602 2.4701 0.25602 5.33091C-1.10603 11.3051 2.85724 20.2655 14.7762 26.8142C14.9823 26.9341 15.2499 27 15.5293 27C15.8101 27 16.0217 26.9317 16.2725 26.8197C28.1582 20.2897 32.1046 11.342 30.7435 5.37141C30.0859 2.48718 28.1864 0.540794 25.6571 0.163985Z"/>
</svg>
