<svg width="28" height="27" viewBox="0 0 28 27" fill="none" xmlns="http://www.w3.org/2000/svg">
<path d="M26.6072 9.07592L18.9035 7.94773L15.4584 0.912042C14.8628 -0.303916 13.1374 -0.304112 12.5417 0.912042L9.09657 7.94773L1.3929 9.07592C0.0618405 9.2706 -0.472238 10.9248 0.491597 11.8716L6.06596 17.3481L4.75001 25.0809C4.52276 26.417 5.9181 27.4399 7.10967 26.8088L14 23.1577L20.8903 26.8087C21.1283 26.9347 21.3882 26.997 21.647 26.997C22.648 26.997 23.4214 26.0882 23.25 25.0809L21.934 17.3481L27.5084 11.8716C28.4717 10.9254 27.9392 9.27089 26.6072 9.07592Z" fill="#F88C0B"/>
</svg>
