<svg width="238" height="57" viewBox="0 0 238 57" fill="none" xmlns="http://www.w3.org/2000/svg">
    <path fill-rule="evenodd" clip-rule="evenodd" d="M94.4661 32.3387C95.1894 32.3475 95.9068 32.2086 96.5745 31.9311C97.1899 31.6735 97.7451 31.2917 98.2057 30.8099C98.6728 30.3198 99.038 29.7421 99.2808 29.1098C99.7998 27.7125 99.7998 26.1754 99.2808 24.7782C99.0384 24.1361 98.6733 23.5478 98.2057 23.0456C97.7483 22.5545 97.1927 22.1663 96.5745 21.906C95.2066 21.3561 93.6792 21.3561 92.3113 21.906C91.6926 22.1793 91.1394 22.5823 90.6894 23.0873C90.2329 23.5978 89.8775 24.1903 89.6421 24.8338C89.3886 25.5074 89.2617 26.2218 89.2668 26.9417C89.1986 28.3843 89.7107 29.794 90.6894 30.8563C91.6903 31.8634 93.0708 32.3999 94.4893 32.3341L94.4661 32.3387ZM91.3956 39.4082C92.0666 39.5 92.7432 39.5454 93.4207 39.5426C94.1862 39.5435 94.9499 39.4578 95.696 39.2878C96.4226 39.1238 97.1061 38.8078 97.7025 38.3612C98.329 37.872 98.8244 37.2355 99.1436 36.5082C99.5519 35.5423 99.7433 34.4985 99.7044 33.4502V33.0429C99.0616 33.7508 98.2975 34.3373 97.4476 34.7756C96.3646 35.3407 95.1566 35.6229 93.9351 35.5955C92.739 35.6081 91.5518 35.3926 90.4364 34.9609C88.3479 34.1747 86.6908 32.5403 85.8766 30.4625C85.4391 29.3363 85.2218 28.136 85.2371 26.9278C85.2241 25.7039 85.4604 24.4901 85.9322 23.3607C86.3761 22.2998 87.03 21.3399 87.8553 20.5394C88.7005 19.7333 89.6977 19.1032 90.7886 18.6863C91.9879 18.2267 93.2627 17.9974 94.5467 18.0099C95.7562 17.9932 96.9596 18.1827 98.1056 18.5705C99.1812 18.9406 100.163 19.5433 100.979 20.3355C101.834 21.1865 102.483 22.221 102.879 23.3607C103.36 24.7481 103.59 26.2102 103.56 27.6778V32.5658C103.601 34.1418 103.353 35.7118 102.828 37.1985C102.403 38.3863 101.712 39.4606 100.807 40.3394C99.9337 41.1631 98.88 41.7723 97.7303 42.1179C96.4717 42.5066 95.1598 42.6974 93.8424 42.6835C92.9953 42.6877 92.1487 42.6381 91.3076 42.5353C91.1825 42.5353 89.8572 42.3176 89.8664 42.2759C89.0323 42.1151 88.486 41.3086 88.6468 40.4747C88.7872 39.7469 89.4267 39.2225 90.1676 39.2276C90.5856 39.266 91.0004 39.3309 91.4095 39.4221L91.3956 39.4082ZM224.852 20.2381V27.9237C224.79 29.0852 225.173 30.2262 225.923 31.1152C226.636 31.9092 227.741 32.3049 229.236 32.3016C230.437 32.3637 231.61 31.9273 232.48 31.0967C233.271 30.2971 233.667 29.1125 233.671 27.5439V20.2289C233.671 17.8014 237.545 17.806 237.545 20.2289V33.7187C237.579 35.1136 237.36 36.503 236.896 37.8191C236.51 38.8809 235.875 39.8343 235.042 40.5987C234.224 41.3386 233.248 41.8806 232.188 42.1831C230.98 42.513 229.732 42.6686 228.481 42.6464C227.629 42.6533 226.777 42.6019 225.932 42.4935C225.186 42.3962 224.542 42.285 223.935 42.1548C223.17 42.0576 222.596 41.4067 222.595 40.6358C222.618 39.7737 223.335 39.0936 224.198 39.1163C224.33 39.12 224.461 39.1399 224.588 39.1765C225.051 39.2738 225.575 39.3567 226.15 39.422C226.788 39.4911 227.431 39.524 228.073 39.5193C228.874 39.5304 229.674 39.4336 230.45 39.2321C231.123 39.0588 231.739 38.7142 232.239 38.2314C232.773 37.7075 233.177 37.0645 233.416 36.3552C233.698 35.4023 233.828 34.4113 233.8 33.4181C233.263 34.1389 232.527 34.6874 231.683 34.9978C230.672 35.4009 229.592 35.6024 228.504 35.5908C227.475 35.5987 226.452 35.4421 225.473 35.1275C224.601 34.8514 223.793 34.4002 223.101 33.8026C222.428 33.2092 221.899 32.4712 221.553 31.6438C221.164 30.7075 220.973 29.7018 220.993 28.6881V20.2289C220.993 17.8014 224.866 17.7967 224.866 20.2289L224.852 20.2381ZM158.725 24.7965C158.705 23.8148 158.901 22.8401 159.3 21.9428C159.667 21.1534 160.207 20.4566 160.88 19.9044C161.58 19.3415 162.383 18.92 163.243 18.6629C164.202 18.3728 165.198 18.2311 166.2 18.2413C167.499 18.219 168.787 18.485 169.972 19.0196C171.062 19.5204 171.983 20.3241 172.627 21.3359C173.26 20.3306 174.166 19.5268 175.241 19.0196C176.402 18.485 177.669 18.219 178.948 18.2413C179.935 18.2339 180.919 18.3696 181.867 18.6443C182.724 18.8899 183.521 19.3059 184.212 19.8673C184.88 20.421 185.415 21.1177 185.778 21.9057C186.18 22.8026 186.378 23.7773 186.357 24.7594V33.9368C186.357 36.3689 182.483 36.3689 182.483 33.9368V26.0612C182.483 24.5 182.131 23.3882 181.427 22.7164C180.645 22.0197 179.619 21.6597 178.573 21.7158C177.493 21.6852 176.446 22.0892 175.667 22.8369C174.882 23.5814 174.492 24.7933 174.494 26.4735V33.9368C174.494 36.3689 170.62 36.3689 170.62 33.9368V26.4874C170.62 24.8104 170.227 23.5966 169.448 22.8508C167.817 21.3971 165.367 21.3517 163.684 22.7442C162.979 23.4438 162.608 24.5463 162.608 26.1122V33.9368C162.608 36.3689 158.739 36.3689 158.739 33.9368V24.7872L158.725 24.7965ZM145.94 24.7967C145.94 22.712 146.581 21.0966 147.863 19.9509C149.142 18.8066 150.917 18.2415 153.183 18.2415C154.307 18.1984 155.429 18.3665 156.492 18.7372C157.381 18.91 157.961 19.7712 157.789 20.6602C157.628 21.4866 156.867 22.0569 156.028 21.98C155.846 21.9819 155.663 21.9518 155.491 21.892C154.94 21.7716 154.377 21.7141 153.813 21.7206C151.158 21.7206 149.833 23.1104 149.833 25.9317V33.937C149.833 36.3691 145.959 36.3691 145.959 33.937V24.7874L145.94 24.7967ZM130.482 20.252V27.775C130.482 29.3135 130.848 30.4856 131.571 31.2917C132.294 32.0973 133.425 32.5008 134.903 32.5008C136.381 32.5008 137.507 32.0931 138.23 31.2917C138.953 30.4902 139.347 29.3135 139.347 27.775V20.2427C139.347 17.8198 143.221 17.8152 143.221 20.2427V28.6228C143.239 29.6892 143.035 30.7478 142.623 31.7313C142.242 32.6245 141.66 33.4171 140.923 34.0476C140.149 34.7018 139.25 35.1919 138.281 35.4889C136.086 36.1499 133.744 36.1499 131.548 35.4889C130.587 35.1924 129.698 34.7022 128.935 34.0476C128.205 33.4097 127.625 32.6185 127.234 31.7313C126.813 30.7501 126.604 29.6906 126.622 28.6228V20.2427C126.622 17.8152 130.496 17.8198 130.496 20.2427L130.482 20.252ZM115 32.575C115.735 32.5833 116.465 32.4383 117.141 32.1488C117.781 31.8796 118.355 31.4752 118.823 30.9628C119.293 30.4444 119.663 29.8445 119.917 29.1931C120.182 28.4932 120.313 27.7501 120.306 27.0019C120.312 26.2431 120.18 25.4898 119.917 24.7782C119.68 24.113 119.313 23.5019 118.837 22.9807C118.364 22.4753 117.792 22.0746 117.155 21.804C116.477 21.5205 115.749 21.3769 115.014 21.3825C114.274 21.3737 113.541 21.5168 112.859 21.804C112.228 22.0774 111.66 22.4776 111.191 22.9807C110.715 23.4973 110.346 24.1037 110.107 24.7643C109.841 25.4754 109.709 26.2292 109.717 26.988C109.707 27.7362 109.839 28.4802 110.107 29.1792C110.357 29.8301 110.724 30.4301 111.191 30.9489C111.656 31.459 112.225 31.8634 112.859 32.1349C113.539 32.4277 114.274 32.5731 115.014 32.5606L115 32.575ZM115 18.0006C116.267 17.9867 117.526 18.2165 118.707 18.677C119.812 19.105 120.823 19.7457 121.682 20.5625C122.521 21.3746 123.192 22.3447 123.656 23.4162C124.137 24.5498 124.38 25.7705 124.37 27.0019C124.393 29.416 123.421 31.7332 121.682 33.4089C120.822 34.2298 119.812 34.8765 118.707 35.3129C116.335 36.2394 113.701 36.2394 111.33 35.3129C110.226 34.8728 109.217 34.2265 108.355 33.4089C107.514 32.5986 106.845 31.6281 106.385 30.5547C105.907 29.4322 105.666 28.2221 105.676 27.0019C105.665 25.7705 105.906 24.5503 106.385 23.4162C106.846 22.3437 107.515 21.3736 108.355 20.5625C109.216 19.7485 110.226 19.1083 111.33 18.677C112.511 18.2169 113.769 17.9872 115.037 18.0006H115ZM70.978 26.2236C71.5017 26.2236 71.9975 26.256 72.4748 26.256H73.9021C74.9164 26.2768 75.9299 26.1958 76.928 26.0151C77.5578 25.909 78.1662 25.7024 78.7307 25.4036C79.0954 25.2155 79.3896 24.9148 79.5694 24.5465C79.7038 24.2347 79.7733 23.8989 79.7733 23.5598C79.8127 22.7717 79.4132 22.0268 78.7353 21.6233C77.9591 21.1712 77.0708 20.9479 76.1727 20.9794C75.4109 20.9706 74.6565 21.129 73.9623 21.4426C73.3525 21.7174 72.8075 22.1185 72.3636 22.6193C71.9284 23.1127 71.5888 23.683 71.3626 24.301C71.1249 24.9199 70.9919 25.5745 70.9688 26.2374L70.978 26.2236ZM81.3892 35.0627C81.1575 35.1554 80.9073 35.2434 80.6385 35.3268C79.98 35.5228 79.3099 35.6775 78.632 35.7901C77.8071 35.9304 76.9712 35.9985 76.1343 35.9939C74.9257 36.0022 73.7241 35.8081 72.58 35.419C71.5109 35.0484 70.529 34.4633 69.693 33.7003C68.851 32.9238 68.1842 31.976 67.7375 30.9207C67.2356 29.7277 66.9849 28.4445 67.0007 27.1501C66.9873 25.8812 67.2231 24.6216 67.6958 23.444C68.1369 22.3572 68.7982 21.3727 69.6374 20.5532C70.4766 19.7462 71.4697 19.1162 72.5568 18.7001C74.7464 17.895 77.1384 17.8218 79.3734 18.4917C80.214 18.7567 80.999 19.1727 81.6904 19.7193C82.8925 20.6792 83.5875 22.1376 83.5764 23.6756C83.588 24.4187 83.4379 25.1553 83.1362 25.8345C82.7924 26.5312 82.2488 27.1103 81.5745 27.4976C80.626 28.0178 79.5945 28.3704 78.5254 28.5399C76.9327 28.8267 75.315 28.9569 73.6968 28.9291H72.4224C72.0239 28.9291 71.6022 28.9013 71.1481 28.8781C71.3154 29.9918 71.9211 30.9929 72.8302 31.6577C73.757 32.3707 75.1102 32.7279 76.8572 32.7279C77.404 32.7316 77.9499 32.6848 78.4883 32.5889C78.9448 32.5129 79.3943 32.3999 79.8322 32.2507C79.9712 32.2044 80.1009 32.1576 80.2261 32.1071C82.1584 31.3705 83.2799 34.2937 81.366 35.0442L81.3892 35.0627ZM192.604 26.2235C193.128 26.2235 193.624 26.256 194.101 26.256H195.529C196.543 26.2768 197.556 26.1957 198.555 26.0151C199.184 25.909 199.793 25.7023 200.357 25.4035C200.724 25.2196 201.021 24.9222 201.205 24.5558C201.34 24.244 201.409 23.9081 201.409 23.569C201.448 22.781 201.049 22.0361 200.371 21.6325C199.595 21.1799 198.707 20.9566 197.808 20.9886C197.047 20.9798 196.292 21.1382 195.598 21.4519C195 21.7187 194.465 22.1088 194.027 22.5961C193.589 23.0881 193.248 23.6589 193.022 24.2778C192.786 24.8977 192.653 25.5518 192.628 26.2143L192.604 26.2235ZM202.995 35.053C202.768 35.1461 202.531 35.2341 202.244 35.3175C201.586 35.5139 200.915 35.6686 200.238 35.7808C199.412 35.9211 198.577 35.9897 197.74 35.9846C196.531 35.9929 195.33 35.7988 194.185 35.4101C193.116 35.0367 192.133 34.4521 191.294 33.6914C190.455 32.9127 189.79 31.9653 189.343 30.9118C188.85 29.7198 188.607 28.4394 188.629 27.1501C188.617 25.8807 188.855 24.6216 189.329 23.4439C189.759 22.3455 190.412 21.3486 191.247 20.5161C192.087 19.7091 193.079 19.079 194.167 18.663C196.357 17.8579 198.749 17.7847 200.983 18.4546C201.822 18.7172 202.605 19.13 203.296 19.673C204.497 20.6342 205.193 22.0912 205.186 23.6293C205.191 24.3737 205.033 25.1103 204.723 25.7881C204.379 26.4848 203.836 27.0639 203.161 27.4512C202.228 27.983 201.211 28.3513 200.154 28.5399C198.561 28.8271 196.944 28.9573 195.325 28.929H194.051C193.653 28.929 193.231 28.9012 192.777 28.8781C192.944 29.9918 193.55 30.9929 194.459 31.6577C195.386 32.3706 196.728 32.7278 198.486 32.7278C199.034 32.7315 199.582 32.6847 200.122 32.5888C200.57 32.5096 201.012 32.3952 201.442 32.246C201.581 32.1997 201.711 32.1534 201.836 32.1024C203.768 31.3654 204.89 34.289 202.976 35.0395L202.995 35.053ZM207.392 24.7875C207.392 22.7028 208.032 21.0874 209.311 19.9417C210.59 18.7974 212.365 18.2323 214.631 18.2323C215.745 18.1957 216.856 18.3671 217.907 18.7372C218.796 18.91 219.377 19.7712 219.204 20.6602C219.043 21.4867 218.282 22.057 217.443 21.9801C217.262 21.9819 217.082 21.9518 216.911 21.8921C216.358 21.7721 215.794 21.7142 215.228 21.7207C212.578 21.7207 211.252 23.1105 211.252 25.9318V33.937C211.252 36.3692 207.379 36.3692 207.379 33.937V24.7875H207.392Z" fill="#77777A"/>
    <mask id="mask0" mask-type="alpha" maskUnits="userSpaceOnUse" x="0" y="0" width="55" height="57">
        <path fill-rule="evenodd" clip-rule="evenodd" d="M0 0H55V57H0V0Z" fill="white"/>
    </mask>
    <g mask="url(#mask0)">
        <path fill-rule="evenodd" clip-rule="evenodd" d="M22.1647 22.3356C20.9883 22.3994 19.9826 21.5104 19.9173 20.349C19.8527 19.1876 20.7537 18.194 21.9301 18.1302C22.0083 18.1257 22.0865 18.1257 22.1647 18.1302H35.9319C37.1083 18.0664 38.114 18.9559 38.1786 20.1167C38.2439 21.2781 37.3429 22.2717 36.1665 22.3356C36.0883 22.34 36.0101 22.34 35.9319 22.3356H22.1647ZM23.6323 40.3759C25.1105 40.3727 26.3114 41.552 26.3147 43.0114C26.3179 44.4708 25.1228 45.6565 23.6452 45.6597C22.167 45.6635 20.9668 44.483 20.9629 43.0242V43.0114C20.9668 41.5571 22.1593 40.3791 23.6323 40.3759ZM33.9337 40.3759C35.4119 40.3759 36.6096 41.559 36.6096 43.0178C36.6096 44.4766 35.4119 45.6597 33.9337 45.6597C32.4555 45.6597 31.2578 44.4766 31.2578 43.0178V43.0114C31.2578 41.5558 32.4529 40.3759 33.9272 40.3759H33.9337ZM28.7635 30.6314C27.591 30.5669 26.6926 29.5772 26.7572 28.4196C26.8173 27.3507 27.6815 26.4975 28.7635 26.4388H48.7357C52.2162 26.4592 55.0208 29.2613 55.0001 32.6971C54.9904 34.3122 54.346 35.8591 53.2019 37.0128L35.8992 54.1279C32.0133 57.9574 25.7205 57.9574 21.8346 54.1279L2.90954 35.443C-0.969846 31.6065 -0.969846 25.3935 2.90954 21.557L21.8346 2.87213C25.7205 -0.957376 32.0133 -0.957376 35.8992 2.87213L50.009 16.7964C50.8441 17.619 50.846 18.9553 50.0122 19.7798C49.1784 20.6042 47.8256 20.6062 46.9905 19.783L32.8872 5.84588C30.665 3.65832 27.0688 3.65832 24.8466 5.84588L5.92152 24.5307C3.71618 26.7292 3.71618 30.2709 5.92152 32.4693L24.8466 51.1541C27.0688 53.3417 30.665 53.3417 32.8872 51.1541L50.1899 34.071C50.4815 33.7915 50.6799 33.4309 50.7587 33.0372C50.8363 32.6365 50.7936 32.221 50.6359 31.8439C50.4827 31.468 50.2197 31.1457 49.8797 30.9186C49.5345 30.7163 49.137 30.6167 48.7357 30.6314H39.3765L37.4375 37.383C37.1731 38.284 36.3387 38.9056 35.3886 38.9081H22.1643C21.1779 38.9088 20.3196 38.2406 20.0895 37.2936L18.1504 30.6314H11.952C10.7737 30.632 9.81836 29.6895 9.81771 28.5268C9.81642 27.3635 10.7711 26.4203 11.9494 26.4197H11.952H19.7534C20.7055 26.4235 21.5405 27.0476 21.8023 27.9512L23.7414 34.69H33.7598L34.9426 30.6186L28.7635 30.6314Z" fill="#3CD52E"/>
    </g>
</svg>