<svg width="27" height="29" viewBox="0 0 27 29" fill="none" xmlns="http://www.w3.org/2000/svg">
    <path fill-rule="evenodd" clip-rule="evenodd" d="M24.7498 25.3232C24.7498 26.5407 23.3624 26.8607 23.0573 26.9167L3.67179 26.9177C3.38805 26.8707 1.97363 26.5707 1.97363 25.3232C1.97363 21.7772 3.87926 19.5482 7.79284 18.5097C9.059 18.2597 11.6586 18.1072 14.0516 18.1072C15.8483 18.1072 17.5289 18.1932 18.4398 18.3882C22.6859 19.3642 24.7498 21.6322 24.7498 25.3232ZM18.8469 16.3501L18.8455 16.3496C16.4572 15.8386 9.78632 15.9881 7.40226 16.4676C7.38426 16.4706 7.36721 16.4751 7.34637 16.4806C3.99505 17.3641 0 19.6151 0 25.3231C0 27.8626 2.26989 28.8336 3.47068 28.9921C3.51047 28.9971 3.55216 29.0001 3.59242 29.0001H23.1319C23.1717 29.0001 23.2134 28.9971 23.2541 28.9921C24.4539 28.8336 26.7238 27.8626 26.7238 25.3231C26.7238 20.6371 24.0002 17.5341 18.8469 16.3501ZM8.15332 7.49994C8.15332 4.42205 10.3275 1.91821 12.9995 1.91821C15.6715 1.91821 17.8457 4.42205 17.8457 7.49994C17.8457 10.5778 15.6715 13.0817 12.9995 13.0817C10.3275 13.0817 8.15332 10.5778 8.15332 7.49994ZM12.9997 15C16.8597 15 20 11.6353 20 7.5C20 3.36469 16.8597 0 12.9997 0C9.13983 0 6 3.36469 6 7.5C6 11.6353 9.13983 15 12.9997 15Z"/>
</svg>