<?xml version="1.0" encoding="UTF-8"?><!DOCTYPE svg PUBLIC "-//W3C//DTD SVG 1.1//EN" "http://www.w3.org/Graphics/SVG/1.1/DTD/svg11.dtd"><svg xmlns="http://www.w3.org/2000/svg"><symbol id="avatar" viewBox="0 0 27 29"><path clip-rule="evenodd" d="M24.75 25.323c0 1.218-1.388 1.538-1.693 1.594H3.672c-.284-.046-1.698-.346-1.698-1.594 0-3.546 1.905-5.775 5.819-6.813 1.266-.25 3.866-.403 6.259-.403 1.796 0 3.477.086 4.388.281 4.246.976 6.31 3.244 6.31 6.935zm-5.903-8.973h-.002c-2.388-.511-9.059-.362-11.443.118-.018.003-.035.007-.056.013C3.995 17.364 0 19.615 0 25.323c0 2.54 2.27 3.51 3.47 3.67a.99.99 0 0 0 .122.007h19.54c.04 0 .081-.003.122-.008 1.2-.158 3.47-1.13 3.47-3.669 0-4.686-2.724-7.789-7.877-8.973zM8.153 7.5c0-3.078 2.175-5.582 4.846-5.582 2.672 0 4.847 2.504 4.847 5.582s-2.175 5.582-4.847 5.582c-2.671 0-4.846-2.504-4.846-5.582zM13 15c3.86 0 7-3.365 7-7.5S16.86 0 13 0 6 3.365 6 7.5 9.14 15 13 15z"/></symbol><symbol id="cart" viewBox="0 0 30 30"><path fill-rule="evenodd" clip-rule="evenodd" d="M30 19.24a2.938 2.938 0 0 1-2.936 2.934H6.521v2.125a2.95 2.95 0 0 1 1.79 1.788h15.988a2.939 2.939 0 0 1 2.765-1.957A2.938 2.938 0 0 1 30 27.065 2.938 2.938 0 0 1 27.064 30a2.939 2.939 0 0 1-2.765-1.956H8.31A2.941 2.941 0 0 1 5.543 30a2.938 2.938 0 0 1-2.934-2.935c0-1.275.817-2.363 1.955-2.766V2.935a.978.978 0 0 0-.976-.978H.978A.978.978 0 1 1 .979 0h2.61A2.938 2.938 0 0 1 6.52 2.935v3.587h22.5c.541 0 .979.438.979.978v11.74zM28.043 8.477H6.521v11.739h20.543a.98.98 0 0 0 .979-.978V8.478zm-.979 17.609a.98.98 0 0 1 .979.978.98.98 0 0 1-.979.979.978.978 0 1 1 0-1.957zm-22.496.978a.98.98 0 0 0 1.957 0 .98.98 0 0 0-1.709-.651.976.976 0 0 0-.248.651z" fill="#5C5C60"/></symbol><symbol id="favourite" viewBox="0 0 31 27"><path fill-rule="evenodd" clip-rule="evenodd" d="M25.233 2.098c1.585.249 2.761 1.58 3.228 3.654.578 2.638-.137 5.932-1.96 9.036-2.255 3.818-6.062 7.299-11.016 10.073-4.956-2.812-8.765-6.294-11.02-10.075-1.861-3.13-2.576-6.423-1.96-9.032C2.973 3.68 4.148 2.347 5.728 2.1a10.208 10.208 0 0 1 1.473-.114c3.526 0 5.487 2.19 6.342 3.496.409.611 1.17.991 1.986.991.792 0 1.591-.4 1.992-1.002.652-1.047 2.566-3.485 6.245-3.485.465 0 .946.037 1.467.113zm.424-1.934l-.152-.02C24.91.07 24.348 0 23.812 0c-4.87 0-7.4 3.132-8.268 4.488C14.383 2.809 11.796 0 7.156 0 6.5 0 5.892.054 5.304.165 2.795.538.91 2.47.256 5.33c-1.362 5.974 2.601 14.934 14.52 21.483.206.12.474.186.753.186.281 0 .493-.068.744-.18 11.885-6.53 15.832-15.478 14.47-21.449-.657-2.884-2.557-4.83-5.086-5.207z"/></symbol><symbol id="star" viewBox="0 0 28 27"><path d="M26.607 9.076l-7.703-1.128L15.458.912c-.595-1.216-2.32-1.216-2.916 0L9.097 7.948 1.393 9.076C.062 9.27-.472 10.925.492 11.872l5.574 5.476-1.316 7.733c-.227 1.336 1.168 2.359 2.36 1.728L14 23.158l6.89 3.65c.238.127.498.189.757.189a1.636 1.636 0 0 0 1.603-1.916l-1.316-7.733 5.574-5.476c.964-.947.431-2.601-.9-2.796z" fill="#F88C0B"/></symbol></svg>